<?xml version="1.0" standalone="no"?>
<!DOCTYPE svg PUBLIC "-//W3C//DTD SVG 20010904//EN"
 "http://www.w3.org/TR/2001/REC-SVG-20010904/DTD/svg10.dtd">
<svg version="1.0" xmlns="http://www.w3.org/2000/svg"
 width="626.000000pt" height="417.000000pt" viewBox="0 0 626.000000 417.000000"
 preserveAspectRatio="xMidYMid meet">

<g transform="translate(0.000000,417.000000) scale(0.100000,-0.100000)"
fill="#000000" stroke="none">
<path d="M0 2085 l0 -2085 1057 0 1058 0 150 148 150 147 -145 -147 -145 -148
2068 0 2067 0 0 1260 c0 833 -3 1260 -10 1260 -5 0 -10 11 -10 25 0 16 -6 25
-15 25 -8 0 -15 7 -15 15 0 8 -11 17 -25 21 -16 4 -25 13 -25 26 0 18 -5 20
-40 15 -39 -5 -40 -4 -40 25 0 34 -23 57 -57 58 -20 0 -23 5 -23 40 0 22 -4
40 -10 40 -5 0 -10 18 -10 40 0 40 0 40 -39 40 -26 0 -41 -5 -45 -16 -3 -8
-10 -12 -16 -9 -15 9 -12 25 6 25 12 0 14 9 12 38 -3 32 -7 37 -30 40 -16 2
-28 -2 -28 -8 0 -6 -5 -10 -12 -8 -8 3 -11 21 -9 53 2 38 0 47 -12 42 -24 -9
-36 7 -40 58 -5 50 -25 105 -39 105 -4 0 -14 13 -23 29 -8 16 -21 35 -28 43
-19 19 -37 97 -37 160 0 30 -5 59 -10 64 -19 19 -20 53 -2 63 9 5 14 13 10 17
-4 4 -20 -1 -35 -11 -32 -20 -2 14 167 188 58 59 169 174 247 255 l143 147
-42 3 c-62 5 -78 -2 -135 -58 -28 -27 -56 -50 -62 -50 -6 0 -11 -7 -11 -15 0
-8 -11 -17 -25 -21 -14 -3 -25 -10 -25 -15 0 -5 -5 -9 -11 -9 -7 0 -22 -11
-35 -25 -13 -14 -34 -25 -48 -25 -14 0 -27 -4 -30 -8 -3 -5 -30 -15 -61 -22
-37 -9 -55 -18 -56 -29 0 -9 -2 -11 -5 -6 -2 6 -30 9 -63 7 -58 -4 -59 -3 -81
34 -13 20 -23 43 -23 51 0 19 -66 11 -79 -9 -4 -7 -8 -10 -8 -5 0 4 -17 0 -37
-9 -52 -22 -138 -44 -172 -44 -15 0 -63 9 -107 21 -57 15 -95 19 -136 15 -43
-4 -61 -2 -72 9 -8 8 -19 15 -24 15 -5 0 -15 7 -22 15 -10 11 -9 18 3 30 9 8
21 15 27 15 6 0 10 6 8 13 -3 6 -24 13 -49 15 -48 3 -91 20 -83 34 3 4 0 24
-7 43 -13 35 -43 48 -52 23 -4 -10 -7 -10 -18 0 -10 9 -96 12 -358 12 l-346 0
-520 -517 -520 -518 515 518 515 517 -1953 0 -1952 0 0 -2085z m2925 2048 c19
-9 35 -20 35 -23 0 -4 -56 -6 -125 -6 -69 1 -125 4 -125 8 0 4 -8 5 -17 2 -12
-4 -9 1 7 15 21 17 39 21 107 21 57 0 93 -5 118 -17z m59 -59 c29 -29 17 -34
-76 -33 -84 1 -219 14 -175 18 10 0 16 5 12 11 -3 5 31 11 87 13 51 1 103 4
115 5 12 1 29 -5 37 -14z m-1574 -72 c-78 -155 -81 -343 -5 -491 31 -62 41
-68 68 -43 53 50 154 57 224 17 23 -14 43 -33 43 -42 0 -12 -3 -13 -13 -4 -8
6 -16 9 -19 6 -4 -4 -186 -9 -198 -5 -18 6 -52 6 -55 0 -3 -4 21 -33 53 -65
40 -40 84 -70 150 -102 51 -25 91 -48 88 -50 -11 -11 -118 30 -173 67 -172
115 -262 290 -250 490 5 92 31 180 72 242 39 58 48 45 15 -20z m1608 -6 c0
-23 -4 -24 -62 -24 -58 0 -172 14 -133 17 10 0 15 6 11 12 -3 6 -18 8 -33 5
-19 -5 -22 -4 -11 4 8 5 63 10 121 10 106 0 107 0 107 -24z m2412 -36 c0 -5
-4 -10 -10 -10 -5 0 -10 5 -10 10 0 6 5 10 10 10 6 0 10 -4 10 -10z m-2480
-10 c-11 -8 -7 -9 15 -4 17 3 36 7 43 10 7 2 12 -6 12 -21 0 -23 -3 -25 -52
-24 -29 1 -62 5 -73 9 -19 8 -19 9 5 19 21 9 16 10 -30 6 -44 -3 -48 -2 -20 4
54 13 118 13 100 1z m30 -72 c0 -9 3 -8 10 2 5 8 12 11 16 7 8 -7 -14 -37 -27
-37 -5 0 -9 6 -9 13 0 9 -11 13 -32 11 l-33 -3 30 8 c43 12 45 12 45 -1z m-5
-58 c-3 -5 -11 -10 -16 -10 -6 0 -7 5 -4 10 3 6 11 10 16 10 6 0 7 -4 4 -10z
m-2465 -543 c0 -2 -10 -12 -22 -23 l-23 -19 19 23 c18 21 26 27 26 19z m-150
-152 c-58 -58 -109 -105 -115 -105 -5 0 39 47 100 105 60 58 112 105 115 105
2 0 -42 -47 -100 -105z m4210 -579 c0 -16 -14 -35 -22 -30 -5 3 -8 0 -7 -7 1
-8 -8 -48 -22 -89 -18 -57 -24 -96 -23 -160 2 -251 162 -453 410 -516 90 -23
106 -38 32 -30 -208 23 -398 189 -453 397 -17 62 -19 204 -5 267 14 58 66 172
79 172 6 0 11 -2 11 -4z m-1281 -231 c-5 -4 -401 -13 -666 -14 l-123 -1 0
-215 0 -215 293 -2 c964 -5 967 -5 973 17 3 11 4 111 2 223 -2 111 0 202 5
202 10 0 9 -432 -1 -447 -6 -10 -145 -12 -648 -10 l-639 2 -3 220 c-1 121 0
225 2 232 4 10 91 13 407 13 221 0 400 -2 398 -5z m194 -2 c-24 -2 -62 -2 -85
0 -24 2 -5 4 42 4 47 0 66 -2 43 -4z m90 0 c-7 -2 -19 -2 -25 0 -7 3 -2 5 12
5 14 0 19 -2 13 -5z m-2553 -107 c0 -3 -4 -8 -10 -11 -5 -3 -10 -1 -10 4 0 6
5 11 10 11 6 0 10 -2 10 -4z m1685 -86 c7 -22 6 -23 -9 -11 -13 11 -19 11 -31
1 -14 -11 -14 -10 -5 15 21 55 27 54 45 -5z m118 23 c6 -34 1 -43 -24 -43 -15
0 -19 7 -19 35 0 28 4 35 19 35 12 0 20 -9 24 -27z m113 15 c4 -6 3 -8 -4 -4
-6 3 -13 2 -16 -3 -3 -5 3 -11 14 -14 11 -3 20 -10 20 -16 0 -17 -30 -25 -43
-12 -9 9 -8 11 6 6 10 -4 17 -2 17 4 0 6 -7 11 -15 11 -8 0 -15 6 -15 13 0 26
23 36 36 15z m117 5 c-7 -2 -14 -19 -14 -36 l-2 -32 -4 30 c-3 16 -10 33 -16
37 -7 4 2 7 18 7 17 0 24 -3 18 -6z m123 -4 c3 -6 1 -16 -5 -22 -7 -7 -7 -15
1 -26 8 -11 5 -10 -8 2 -15 14 -16 19 -5 26 9 6 10 11 2 15 -11 7 -16 0 -24
-39 -3 -13 -5 -9 -6 11 0 17 2 34 6 37 10 11 31 8 39 -4z m123 -49 c0 -10 -2
-11 -6 -2 -6 15 -33 16 -33 0 0 -6 -3 -8 -6 -5 -4 4 -1 20 6 38 l13 31 13 -24
c7 -12 13 -30 13 -38z m115 54 c9 -3 16 -11 16 -16 0 -6 -6 -5 -15 2 -16 13
-35 6 -35 -15 0 -21 19 -28 35 -15 9 7 15 8 15 2 0 -16 -31 -23 -46 -11 -17
14 -18 31 -2 47 14 14 12 14 32 6z m129 -1 c-7 -2 -14 -19 -14 -36 l-2 -32 -4
30 c-3 16 -10 33 -16 37 -7 4 2 7 18 7 17 0 24 -3 18 -6z m-2886 -320 c-113
-114 -208 -205 -211 -202 -6 6 397 409 409 409 4 0 -85 -93 -198 -207z m2031
174 c2 -19 -1 -27 -13 -27 -19 0 -30 24 -21 46 9 23 31 11 34 -19z m94 5 c4
-12 -1 -18 -13 -18 -20 0 -22 5 -13 30 7 19 20 13 26 -12z m93 18 c4 -6 1 -9
-7 -8 -7 2 -12 -5 -11 -16 1 -13 -2 -15 -10 -7 -7 7 -6 15 3 26 15 18 17 18
25 5z m91 -13 c-1 -28 -26 -32 -26 -5 0 11 5 16 10 13 6 -3 10 -1 10 4 0 6 2
11 4 11 2 0 3 -10 2 -23z m99 13 c3 -6 -1 -7 -9 -4 -12 4 -16 0 -17 -17 0 -13
-3 -18 -6 -11 -11 28 17 56 32 32z m93 -18 c3 -16 -1 -20 -12 -16 -19 7 -22
48 -3 42 6 -3 13 -14 15 -26z m102 12 c11 -12 10 -18 -5 -32 -18 -16 -18 -16
-6 0 15 20 5 42 -16 34 -8 -3 -11 -1 -8 4 9 14 21 12 35 -6z m96 -29 c-8 -21
-36 -6 -35 19 0 20 1 19 12 -4 l11 -25 5 30 c3 20 6 24 8 12 3 -10 2 -25 -1
-32z m183 36 c17 -11 7 -41 -14 -41 -9 0 -15 9 -15 25 0 27 6 30 29 16z m-109
-8 c0 -5 -5 -15 -10 -23 -8 -12 -10 -11 -10 8 0 12 5 22 10 22 6 0 10 -3 10
-7z m20 -14 c0 -11 -4 -18 -10 -14 -5 3 -7 12 -3 20 7 21 13 19 13 -6z m-380
-9 c0 -5 -4 -10 -10 -10 -5 0 -10 5 -10 10 0 6 5 10 10 10 6 0 10 -4 10 -10z
m-160 -363 c0 -2 -10 -12 -22 -23 l-23 -19 19 23 c18 21 26 27 26 19z m2782
-18 c21 -5 50 -20 64 -33 23 -19 25 -26 16 -42 -6 -10 -12 -14 -12 -9 0 6 -52
9 -140 8 -77 -1 -140 1 -140 3 0 15 23 45 43 56 50 26 113 33 169 17z m-2912
-112 c0 -2 -15 -16 -32 -33 l-33 -29 29 33 c28 30 36 37 36 29z m-1572 -87
c-7 -11 -15 -15 -17 -9 -2 6 3 15 10 20 20 12 21 11 7 -11z m1502 17 c0 -2
-19 -21 -42 -42 l-43 -40 40 43 c36 39 45 47 45 39z m-1545 -69 c-8 -18 -23
-52 -34 -75 -11 -22 -30 -76 -42 -119 -55 -202 39 -435 223 -554 51 -33 181
-82 248 -93 14 -2 2 -5 -26 -6 -112 -3 -262 72 -348 172 -24 29 -60 84 -79
122 -88 178 -75 394 33 543 36 50 44 53 25 10z m1455 -21 c0 -1 -102 -103
-227 -227 l-228 -225 225 228 c209 211 230 232 230 224z m-1699 -199 c3 -54 4
-278 1 -278 -15 0 -104 109 -117 145 -16 42 -16 46 1 82 12 23 33 45 54 55 46
24 60 23 61 -4z m4159 -732 c0 -2 -8 -10 -17 -17 -16 -13 -17 -12 -4 4 13 16
21 21 21 13z m-70 -71 c-19 -19 -39 -35 -44 -35 -10 0 63 70 73 70 3 0 -10
-16 -29 -35z m-65 -65 c-10 -11 -21 -18 -23 -15 -3 3 3 12 14 20 27 20 30 18
9 -5z m-1767 -30 c16 0 15 -53 0 -68 -7 -7 -25 -12 -40 -12 -21 0 -33 8 -48
32 l-20 33 23 8 c12 4 26 15 30 23 8 14 11 14 26 0 10 -9 23 -16 29 -16z
m-558 -22 c33 2 58 8 54 13 -3 5 0 9 5 9 6 0 11 -6 11 -12 0 -17 202 -16 208
1 8 25 22 8 22 -27 0 -30 -4 -38 -20 -39 -11 -1 -22 3 -26 8 -4 6 -11 6 -20
-2 -11 -9 -18 -9 -26 -1 -6 6 -17 8 -24 5 -9 -3 -14 3 -15 18 0 15 -3 18 -6 9
-16 -44 -83 -71 -83 -33 0 8 -5 11 -11 8 -17 -11 -92 -13 -111 -3 -10 5 -18 5
-18 0 0 -5 -10 -8 -22 -7 -33 2 -37 46 -6 60 15 7 24 7 26 0 1 -6 28 -9 62 -7z
m350 12 c0 -5 11 -10 25 -10 14 0 25 -5 25 -11 0 -8 5 -7 15 1 22 18 25 10 10
-27 -9 -20 -21 -33 -32 -33 -15 0 -16 2 -3 10 8 5 11 12 7 16 -3 4 -13 2 -20
-5 -24 -19 -47 -2 -47 35 0 19 5 34 10 34 6 0 10 -4 10 -10z m275 0 c-6 -10
32 -13 158 -10 66 1 67 1 67 -24 0 -24 -11 -30 -46 -25 -4 0 -11 -5 -15 -13
-8 -11 -11 -11 -18 1 -5 7 -13 11 -18 8 -5 -3 -15 -2 -23 3 -9 5 -19 5 -27 -2
-15 -12 -43 6 -43 29 0 8 -4 11 -10 8 -5 -3 -10 -14 -10 -24 0 -28 -34 -20
-41 9 -7 32 -1 50 18 50 8 0 11 -4 8 -10z m255 0 c0 -5 6 -10 14 -10 9 0 12
-7 9 -19 -3 -13 1 -21 14 -24 10 -2 1 -4 -19 -4 -36 0 -38 2 -38 34 0 18 5 33
10 33 6 0 10 -4 10 -10z m253 -29 c2 -10 1 -25 -4 -32 -7 -12 -9 -11 -10 1 -1
8 -1 18 0 23 0 4 -3 7 -9 7 -5 0 -10 -10 -11 -22 -1 -21 -2 -20 -14 7 -12 25
-14 27 -15 9 0 -23 -38 -37 -61 -23 -7 4 -21 3 -31 -2 -10 -6 -23 -7 -28 -4
-11 7 -14 38 -5 47 3 3 46 6 94 6 79 1 89 -1 94 -17z m1127 6 c0 -2 -10 -12
-22 -23 l-23 -19 19 23 c18 21 26 27 26 19z"/>
<path d="M2728 4123 c12 -2 32 -2 45 0 12 2 2 4 -23 4 -25 0 -35 -2 -22 -4z"/>
<path d="M2790 2150 c0 -5 5 -10 10 -10 6 0 10 5 10 10 0 6 -4 10 -10 10 -5 0
-10 -4 -10 -10z"/>
<path d="M2790 2120 c0 -5 5 -10 10 -10 6 0 10 5 10 10 0 6 -4 10 -10 10 -5 0
-10 -4 -10 -10z"/>
<path d="M3520 2026 c0 -9 5 -16 10 -16 6 0 10 4 10 9 0 6 -4 13 -10 16 -5 3
-10 -1 -10 -9z"/>
<path d="M3110 240 c0 -5 5 -10 10 -10 6 0 10 5 10 10 0 6 -4 10 -10 10 -5 0
-10 -4 -10 -10z"/>
<path d="M2525 221 c-3 -5 -1 -12 5 -16 5 -3 10 1 10 9 0 18 -6 21 -15 7z"/>
<path d="M2715 221 c-3 -5 -1 -12 5 -16 5 -3 10 1 10 9 0 18 -6 21 -15 7z"/>
<path d="M2890 214 c0 -8 5 -12 10 -9 6 4 8 11 5 16 -9 14 -15 11 -15 -7z"/>
<path d="M2970 214 c0 -8 5 -12 10 -9 6 4 8 11 5 16 -9 14 -15 11 -15 -7z"/>
<path d="M3241 214 c0 -11 3 -14 6 -6 3 7 2 16 -1 19 -3 4 -6 -2 -5 -13z"/>
<path d="M3416 221 c-4 -7 -5 -15 -2 -18 9 -9 19 4 14 18 -4 11 -6 11 -12 0z"/>
<path d="M3580 215 c0 -9 6 -12 15 -9 8 4 15 7 15 9 0 2 -7 5 -15 9 -9 3 -15
0 -15 -9z"/>
<path d="M3630 215 c0 -8 5 -15 10 -15 6 0 10 7 10 15 0 8 -4 15 -10 15 -5 0
-10 -7 -10 -15z"/>
<path d="M4720 4132 c0 -12 19 -26 26 -19 2 2 -2 10 -11 17 -9 8 -15 8 -15 2z"/>
<path d="M4858 4013 c7 -3 16 -2 19 1 4 3 -2 6 -13 5 -11 0 -14 -3 -6 -6z"/>
<path d="M4877 3970 c-3 -13 0 -16 14 -13 27 8 32 20 10 26 -13 3 -21 -1 -24
-13z"/>
<path d="M5650 3560 c-8 -5 -12 -11 -10 -14 3 -2 14 2 24 10 22 15 10 19 -14
4z"/>
</g>
</svg>
